<svg width="423" height="160" viewBox="0 0 423 160" fill="none" xmlns="http://www.w3.org/2000/svg">
<path d="M16.0546 36.0544C16.0546 25.0087 25.0089 16.0544 36.0546 16.0544L57.4381 16.0544L57.4381 52.2829C57.4381 55.0443 55.1995 57.2829 52.4381 57.2829L16.0546 57.2829L16.0546 36.0544Z" fill="#FF1C1C"/>
<path d="M16 59.2006L52.3835 59.2006C55.1449 59.2006 57.3835 61.4391 57.3835 64.2006L57.3835 95.429C57.3835 98.1905 55.1449 100.429 52.3835 100.429L16 100.429L16 59.2006Z" fill="#363636"/>
<path d="M16 102.292L52.3835 102.292C55.1449 102.292 57.3835 104.531 57.3835 107.292L57.3835 143.521L36 143.521C24.9543 143.521 16 134.566 16 123.521L16 102.292Z" fill="#F1F1F1"/>
<path d="M59.3083 16L100.692 16L100.692 52.2285C100.692 54.9899 98.4532 57.2285 95.6917 57.2285L64.3083 57.2285C61.5469 57.2285 59.3083 54.9899 59.3083 52.2285L59.3083 16Z" fill="#FF1C1C"/>
<path d="M59.2537 64.1461C59.2537 61.3847 61.4922 59.1461 64.2537 59.1461L95.6371 59.1461C98.3985 59.1461 100.637 61.3847 100.637 64.1461L100.637 95.3746C100.637 98.136 98.3985 100.375 95.6371 100.375L64.2537 100.375C61.4922 100.375 59.2537 98.136 59.2537 95.3746L59.2537 64.1461Z" fill="#DCDCDC"/>
<path d="M59.2537 107.771C59.2537 105.01 61.4922 102.771 64.2537 102.771L95.6371 102.771C98.3985 102.771 100.637 105.01 100.637 107.771L100.637 144L59.2537 144L59.2537 107.771Z" fill="#F1F1F1"/>
<path d="M102.617 16L124 16C135.046 16 144 24.9543 144 36L144 57.2285L107.617 57.2285C104.855 57.2285 102.617 54.9899 102.617 52.2285L102.617 16Z" fill="#FF1C1C"/>
<path d="M102.562 64.1461C102.562 61.3847 104.8 59.1461 107.562 59.1461L143.945 59.1461L143.945 100.375L107.562 100.375C104.8 100.375 102.562 98.136 102.562 95.3746L102.562 64.1461Z" fill="#363636"/>
<path d="M102.562 107.771C102.562 105.01 104.8 102.771 107.562 102.771L143.945 102.771L143.945 124C143.945 135.046 134.991 144 123.945 144L102.562 144L102.562 107.771Z" fill="#F1F1F1"/>
<path d="M179.414 46.2891C186.68 44.0859 192.633 42.9844 197.273 42.9844C203.602 42.9844 206.719 45.1875 206.625 49.5938C206.484 58.4531 199.031 67.6172 184.266 77.0859C183.234 82.8047 182.484 88.1016 182.016 92.9766L170.836 96.0703C170.977 95.0391 171.539 91.8984 172.523 86.6484L175.617 69.9844C178.383 54.6562 179.648 46.7578 179.414 46.2891ZM188.273 57.5391C187.945 58.8516 187.641 60.1641 187.359 61.4766L186.586 65.3438C190.945 63.1875 193.758 60.9141 195.023 58.5234C195.211 58.1484 195.305 57.8438 195.305 57.6094C195.305 56.8125 194.719 56.4141 193.547 56.4141C192.422 56.4141 190.664 56.7891 188.273 57.5391ZM224.836 41.0156C229.805 41.0156 233.32 43.7812 235.383 49.3125C236.461 52.1719 237 55.3125 237 58.7344C237 62.0156 236.508 65.5781 235.523 69.4219C233.789 75.9844 230.789 82.0312 226.523 87.5625C221.32 94.3125 215.812 97.6875 210 97.6875C204.984 97.6875 201.422 94.9219 199.312 89.3906C198.281 86.6719 197.766 83.625 197.766 80.25C197.766 76.9219 198.281 73.3125 199.312 69.4219C201.047 62.8125 204.023 56.7422 208.242 51.2109C213.445 44.4141 218.977 41.0156 224.836 41.0156ZM222.305 58.4531C219.727 58.4531 217.102 60.5625 214.43 64.7812C212.273 68.1094 210.773 71.3672 209.93 74.5547C209.508 76.2422 209.297 77.7656 209.297 79.125C209.297 81.0469 209.766 82.6172 210.703 83.8359C211.781 85.1953 213.281 85.875 215.203 85.875C217.828 85.875 220.195 84.4922 222.305 81.7266C223.992 79.5234 225.211 76.9219 225.961 73.9219C226.852 70.4062 227.039 66.9375 226.523 63.5156C225.961 60.1406 224.555 58.4531 222.305 58.4531ZM240.305 46.3594L252.398 44.1094C251.32 48.2344 250.523 51.4922 250.008 53.8828C254.086 50.3203 257.812 46.8984 261.188 43.6172L270.047 49.3828L256.195 61.6875L264 90.3047L251.273 97.0547L246.352 70.5469C244.898 78.0938 243.75 85.5703 242.906 92.9766L231.727 96.0703L240.305 46.3594ZM280.523 56.8359C280.148 58.1953 279.82 59.5312 279.539 60.8438L278.766 64.7109L290.016 62.3203L289.383 72.0234C284.039 72.9609 279.844 73.7812 276.797 74.4844C276.609 75.4219 276.445 76.3594 276.305 77.2969L275.812 80.0391L288.891 78.1406L287.977 91.2188C281.227 91.7812 272.672 93.3984 262.312 96.0703L270.68 45.6562L294.094 42.2812L293.18 55.2891C288.586 55.7109 284.367 56.2266 280.523 56.8359ZM296.555 46.2891C301.945 44.5078 306.516 43.6172 310.266 43.6172C314.484 43.6172 317.695 44.7188 319.898 46.9219C322.945 50.0625 324.469 53.8828 324.469 58.3828C324.469 60.0234 324.258 61.7578 323.836 63.5859C322.008 71.8359 317.695 79.0547 310.898 85.2422C304.102 91.3828 296.531 94.9922 288.188 96.0703C288.281 95.0391 288.773 91.9688 289.664 86.8594L295.289 54.5156C296.086 49.6875 296.508 46.9453 296.555 46.2891ZM306.609 57.8906C304.453 67.0781 302.812 75.7734 301.688 83.9766C304.5 81.3047 307.008 78.2109 309.211 74.6953C311.93 70.3828 313.289 66.6797 313.289 63.5859C313.289 59.6016 311.062 57.7031 306.609 57.8906ZM346.617 41.0156C351.586 41.0156 355.102 43.7812 357.164 49.3125C358.242 52.1719 358.781 55.3125 358.781 58.7344C358.781 62.0156 358.289 65.5781 357.305 69.4219C355.57 75.9844 352.57 82.0312 348.305 87.5625C343.102 94.3125 337.594 97.6875 331.781 97.6875C326.766 97.6875 323.203 94.9219 321.094 89.3906C320.062 86.6719 319.547 83.625 319.547 80.25C319.547 76.9219 320.062 73.3125 321.094 69.4219C322.828 62.8125 325.805 56.7422 330.023 51.2109C335.227 44.4141 340.758 41.0156 346.617 41.0156ZM344.086 58.4531C341.508 58.4531 338.883 60.5625 336.211 64.7812C334.055 68.1094 332.555 71.3672 331.711 74.5547C331.289 76.2422 331.078 77.7656 331.078 79.125C331.078 81.0469 331.547 82.6172 332.484 83.8359C333.562 85.1953 335.062 85.875 336.984 85.875C339.609 85.875 341.977 84.4922 344.086 81.7266C345.773 79.5234 346.992 76.9219 347.742 73.9219C348.633 70.4062 348.82 66.9375 348.305 63.5156C347.742 60.1406 346.336 58.4531 344.086 58.4531ZM362.086 46.3594L374.18 44.1094C373.102 48.2344 372.305 51.4922 371.789 53.8828C375.867 50.3203 379.594 46.8984 382.969 43.6172L391.828 49.3828L377.977 61.6875L385.781 90.3047L373.055 97.0547L368.133 70.5469C366.68 78.0938 365.531 85.5703 364.688 92.9766L353.508 96.0703L362.086 46.3594ZM393.586 46.3594L405.609 44.1094C402.375 56.3906 399.984 67.4062 398.438 77.1562L405.117 74.3438L410.039 46.3594L422.062 44.1094C417.188 63.3281 414.023 79.6172 412.57 92.9766L401.32 96.0703L402.727 88.2656C398.789 90 392.836 92.6016 384.867 96.0703L393.586 46.3594Z" fill="#F1F1F1"/>
<path d="M223.016 127.288C222.04 127.288 221.168 127.088 220.4 126.688C219.648 126.288 219.072 125.728 218.672 125.008L218.48 127H216.656V109.72H218.672V117.064C219.056 116.488 219.6 115.968 220.304 115.504C221.024 115.04 221.936 114.808 223.04 114.808C224.224 114.808 225.256 115.08 226.136 115.624C227.016 116.168 227.696 116.912 228.176 117.856C228.672 118.8 228.92 119.872 228.92 121.072C228.92 122.272 228.672 123.344 228.176 124.288C227.696 125.216 227.008 125.952 226.112 126.496C225.232 127.024 224.2 127.288 223.016 127.288ZM222.8 125.536C223.6 125.536 224.304 125.352 224.912 124.984C225.52 124.6 226 124.072 226.352 123.4C226.704 122.728 226.88 121.944 226.88 121.048C226.88 120.152 226.704 119.368 226.352 118.696C226 118.024 225.52 117.504 224.912 117.136C224.304 116.752 223.6 116.56 222.8 116.56C222 116.56 221.296 116.752 220.688 117.136C220.08 117.504 219.6 118.024 219.248 118.696C218.896 119.368 218.72 120.152 218.72 121.048C218.72 121.944 218.896 122.728 219.248 123.4C219.6 124.072 220.08 124.6 220.688 124.984C221.296 125.352 222 125.536 222.8 125.536ZM232.061 132.28L235.013 125.848H234.317L229.589 115.096H231.773L235.709 124.36L239.885 115.096H241.973L234.173 132.28H232.061Z" fill="white"/>
<path d="M250.904 127V107.4H257.596C259.892 107.4 261.777 107.811 263.252 108.632C264.745 109.435 265.847 110.573 266.556 112.048C267.284 113.504 267.648 115.221 267.648 117.2C267.648 119.179 267.284 120.905 266.556 122.38C265.847 123.836 264.745 124.975 263.252 125.796C261.777 126.599 259.892 127 257.596 127H250.904ZM254.488 123.92H257.428C259.071 123.92 260.368 123.659 261.32 123.136C262.272 122.595 262.953 121.829 263.364 120.84C263.775 119.832 263.98 118.619 263.98 117.2C263.98 115.8 263.775 114.596 263.364 113.588C262.953 112.58 262.272 111.805 261.32 111.264C260.368 110.723 259.071 110.452 257.428 110.452H254.488V123.92ZM277.39 127.336C276.046 127.336 274.833 127.028 273.75 126.412C272.686 125.796 271.837 124.947 271.202 123.864C270.586 122.763 270.278 121.493 270.278 120.056C270.278 118.619 270.596 117.359 271.23 116.276C271.865 115.175 272.714 114.316 273.778 113.7C274.861 113.084 276.074 112.776 277.418 112.776C278.744 112.776 279.938 113.084 281.002 113.7C282.085 114.316 282.934 115.175 283.55 116.276C284.185 117.359 284.502 118.619 284.502 120.056C284.502 121.493 284.185 122.763 283.55 123.864C282.934 124.947 282.085 125.796 281.002 126.412C279.92 127.028 278.716 127.336 277.39 127.336ZM277.39 124.228C278.324 124.228 279.136 123.883 279.826 123.192C280.517 122.483 280.862 121.437 280.862 120.056C280.862 118.675 280.517 117.639 279.826 116.948C279.136 116.239 278.333 115.884 277.418 115.884C276.466 115.884 275.645 116.239 274.954 116.948C274.282 117.639 273.946 118.675 273.946 120.056C273.946 121.437 274.282 122.483 274.954 123.192C275.645 123.883 276.457 124.228 277.39 124.228ZM287.707 127V106.84H291.291V118.74L296.219 113.112H300.475L294.791 119.44L301.399 127H296.919L291.291 120.028V127H287.707ZM308.829 127.336C307.093 127.336 305.749 126.795 304.797 125.712C303.863 124.629 303.397 123.043 303.397 120.952V113.112H306.953V120.616C306.953 121.811 307.195 122.725 307.681 123.36C308.166 123.995 308.931 124.312 309.977 124.312C310.966 124.312 311.778 123.957 312.413 123.248C313.066 122.539 313.393 121.549 313.393 120.28V113.112H316.977V127H313.813L313.533 124.648C313.103 125.469 312.478 126.123 311.657 126.608C310.854 127.093 309.911 127.336 308.829 127.336ZM335.98 127.336C334.132 127.336 332.517 126.916 331.136 126.076C329.754 125.236 328.681 124.069 327.916 122.576C327.15 121.064 326.768 119.309 326.768 117.312C326.768 115.296 327.16 113.523 327.944 111.992C328.746 110.443 329.876 109.239 331.332 108.38C332.806 107.503 334.552 107.064 336.568 107.064C338.864 107.064 340.768 107.615 342.28 108.716C343.792 109.817 344.772 111.339 345.22 113.28H341.216C340.917 112.365 340.376 111.656 339.592 111.152C338.808 110.629 337.8 110.368 336.568 110.368C334.608 110.368 333.096 110.993 332.032 112.244C330.968 113.476 330.436 115.175 330.436 117.34C330.436 119.505 330.958 121.185 332.004 122.38C333.068 123.556 334.505 124.144 336.316 124.144C338.089 124.144 339.424 123.668 340.32 122.716C341.234 121.745 341.785 120.476 341.972 118.908H337.016V116.22H345.584V127H342.28L342 124.424C341.365 125.357 340.572 126.076 339.62 126.58C338.668 127.084 337.454 127.336 335.98 127.336ZM353.772 127.336C352.577 127.336 351.597 127.149 350.832 126.776C350.067 126.384 349.497 125.871 349.124 125.236C348.751 124.601 348.564 123.901 348.564 123.136C348.564 121.848 349.068 120.803 350.076 120C351.084 119.197 352.596 118.796 354.612 118.796H358.14V118.46C358.14 117.508 357.869 116.808 357.328 116.36C356.787 115.912 356.115 115.688 355.312 115.688C354.584 115.688 353.949 115.865 353.408 116.22C352.867 116.556 352.531 117.06 352.4 117.732H348.9C348.993 116.724 349.329 115.847 349.908 115.1C350.505 114.353 351.271 113.784 352.204 113.392C353.137 112.981 354.183 112.776 355.34 112.776C357.319 112.776 358.877 113.271 360.016 114.26C361.155 115.249 361.724 116.649 361.724 118.46V127H358.672L358.336 124.76C357.925 125.507 357.347 126.123 356.6 126.608C355.872 127.093 354.929 127.336 353.772 127.336ZM354.584 124.536C355.611 124.536 356.404 124.2 356.964 123.528C357.543 122.856 357.907 122.025 358.056 121.036H355.004C354.052 121.036 353.371 121.213 352.96 121.568C352.549 121.904 352.344 122.324 352.344 122.828C352.344 123.369 352.549 123.789 352.96 124.088C353.371 124.387 353.912 124.536 354.584 124.536ZM365.144 127V113.112H368.308L368.616 114.988C369.064 114.316 369.652 113.784 370.38 113.392C371.127 112.981 371.986 112.776 372.956 112.776C375.103 112.776 376.624 113.607 377.52 115.268C378.024 114.503 378.696 113.896 379.536 113.448C380.395 113 381.328 112.776 382.336 112.776C384.147 112.776 385.538 113.317 386.508 114.4C387.479 115.483 387.964 117.069 387.964 119.16V127H384.38V119.496C384.38 118.301 384.147 117.387 383.68 116.752C383.232 116.117 382.532 115.8 381.58 115.8C380.61 115.8 379.826 116.155 379.228 116.864C378.65 117.573 378.36 118.563 378.36 119.832V127H374.776V119.496C374.776 118.301 374.543 117.387 374.076 116.752C373.61 116.117 372.891 115.8 371.92 115.8C370.968 115.8 370.194 116.155 369.596 116.864C369.018 117.573 368.728 118.563 368.728 119.832V127H365.144ZM398.115 127.336C396.715 127.336 395.474 127.037 394.391 126.44C393.308 125.843 392.459 125.003 391.843 123.92C391.227 122.837 390.919 121.587 390.919 120.168C390.919 118.731 391.218 117.452 391.815 116.332C392.431 115.212 393.271 114.344 394.335 113.728C395.418 113.093 396.687 112.776 398.143 112.776C399.506 112.776 400.71 113.075 401.755 113.672C402.8 114.269 403.612 115.091 404.191 116.136C404.788 117.163 405.087 118.311 405.087 119.58C405.087 119.785 405.078 120 405.059 120.224C405.059 120.448 405.05 120.681 405.031 120.924H394.475C394.55 122.007 394.923 122.856 395.595 123.472C396.286 124.088 397.116 124.396 398.087 124.396C398.815 124.396 399.422 124.237 399.907 123.92C400.411 123.584 400.784 123.155 401.027 122.632H404.667C404.406 123.509 403.967 124.312 403.351 125.04C402.754 125.749 402.007 126.309 401.111 126.72C400.234 127.131 399.235 127.336 398.115 127.336ZM398.143 115.688C397.266 115.688 396.491 115.94 395.819 116.444C395.147 116.929 394.718 117.676 394.531 118.684H401.447C401.391 117.769 401.055 117.041 400.439 116.5C399.823 115.959 399.058 115.688 398.143 115.688ZM413.841 127.336C412.609 127.336 411.527 127.14 410.593 126.748C409.66 126.337 408.913 125.777 408.353 125.068C407.793 124.359 407.457 123.537 407.345 122.604H410.957C411.069 123.145 411.368 123.612 411.853 124.004C412.357 124.377 413.001 124.564 413.785 124.564C414.569 124.564 415.139 124.405 415.493 124.088C415.867 123.771 416.053 123.407 416.053 122.996C416.053 122.399 415.792 121.997 415.269 121.792C414.747 121.568 414.019 121.353 413.085 121.148C412.488 121.017 411.881 120.859 411.265 120.672C410.649 120.485 410.08 120.252 409.557 119.972C409.053 119.673 408.643 119.3 408.325 118.852C408.008 118.385 407.849 117.816 407.849 117.144C407.849 115.912 408.335 114.876 409.305 114.036C410.295 113.196 411.676 112.776 413.449 112.776C415.092 112.776 416.399 113.159 417.369 113.924C418.359 114.689 418.947 115.744 419.133 117.088H415.745C415.54 116.061 414.765 115.548 413.421 115.548C412.749 115.548 412.227 115.679 411.853 115.94C411.499 116.201 411.321 116.528 411.321 116.92C411.321 117.331 411.592 117.657 412.133 117.9C412.675 118.143 413.393 118.367 414.289 118.572C415.26 118.796 416.147 119.048 416.949 119.328C417.771 119.589 418.424 119.991 418.909 120.532C419.395 121.055 419.637 121.811 419.637 122.8C419.656 123.659 419.432 124.433 418.965 125.124C418.499 125.815 417.827 126.356 416.949 126.748C416.072 127.14 415.036 127.336 413.841 127.336Z" fill="white"/>
</svg>
